M48
; DRILL file {KiCad (5.1.10)-1} date 05/18/22 10:52:08
; FORMAT={-:-/ absolute / metric / decimal}
; #@! TF.CreationDate,2022-05-18T10:52:08+03:00
; #@! TF.GenerationSoftware,Kicad,Pcbnew,(5.1.10)-1
FMAT,2
METRIC
T1C1.020
T2C1.750
T3C2.850
T4C3.000
T5C4.500
%
G90
G05
T1
X95.21Y-109.625
X95.21Y-112.625
X98.21Y-109.625
X98.21Y-112.625
X101.21Y-109.625
X101.21Y-112.625
X104.21Y-109.625
X104.21Y-112.625
X107.21Y-109.625
X107.21Y-112.625
X116.165Y-109.625
X116.165Y-112.625
X119.165Y-109.625
X119.165Y-112.625
X122.165Y-109.625
X122.165Y-112.625
X125.165Y-109.625
X125.165Y-112.625
X133.945Y-109.625
X133.945Y-112.625
X136.945Y-109.625
X136.945Y-112.625
X139.945Y-109.625
X139.945Y-112.625
X142.945Y-109.625
X142.945Y-112.625
X151.725Y-109.625
X151.725Y-112.625
X154.725Y-109.625
X154.725Y-112.625
X157.725Y-109.625
X157.725Y-112.625
X160.725Y-109.625
X160.725Y-112.625
X163.725Y-109.625
X163.725Y-112.625
T2
X107.5Y-121.5
X107.5Y-129.5
X109.5Y-125.5
X111.5Y-121.5
X111.5Y-129.5
X113.5Y-125.5
X115.5Y-121.5
X115.5Y-129.5
X117.5Y-125.5
X119.5Y-121.5
X119.5Y-129.5
X121.5Y-125.5
X123.5Y-121.5
X123.5Y-129.5
X125.5Y-125.5
X127.5Y-121.5
X127.5Y-129.5
X129.5Y-125.5
X131.5Y-121.5
X131.5Y-129.5
X133.5Y-125.5
X135.5Y-121.5
X135.5Y-129.5
X137.5Y-125.5
X139.5Y-121.5
X139.5Y-129.5
X141.5Y-125.5
X143.5Y-121.5
X143.5Y-129.5
X145.5Y-125.5
X147.5Y-121.5
X147.5Y-129.5
X149.5Y-125.5
X151.5Y-121.5
X151.5Y-129.5
T3
X101.0Y-126.0
X158.0Y-126.0
T4
X97.37Y-105.305
X105.07Y-105.305
X118.325Y-105.305
X123.025Y-105.305
X136.105Y-105.305
X140.805Y-105.305
X153.885Y-105.305
X161.585Y-105.305
T5
X85.5Y-105.0
X85.5Y-130.0
X173.5Y-105.0
X173.5Y-130.0
T0
M30
