%TF.GenerationSoftware,KiCad,Pcbnew,(5.1.10)-1*%
%TF.CreationDate,2021-08-20T11:56:52+03:00*%
%TF.ProjectId,Connector,436f6e6e-6563-4746-9f72-2e6b69636164,rev?*%
%TF.SameCoordinates,Original*%
%TF.FileFunction,Legend,Top*%
%TF.FilePolarity,Positive*%
%FSLAX46Y46*%
G04 Gerber Fmt 4.6, Leading zero omitted, Abs format (unit mm)*
G04 Created by KiCad (PCBNEW (5.1.10)-1) date 2021-08-20 11:56:52*
%MOMM*%
%LPD*%
G01*
G04 APERTURE LIST*
%ADD10C,0.500000*%
%ADD11C,0.127000*%
%ADD12C,0.400000*%
%ADD13C,0.120000*%
%ADD14C,0.150000*%
G04 APERTURE END LIST*
D10*
X151975000Y-107720000D02*
G75*
G03*
X151975000Y-107720000I-250000J0D01*
G01*
X134195000Y-107720000D02*
G75*
G03*
X134195000Y-107720000I-250000J0D01*
G01*
X116415000Y-107720000D02*
G75*
G03*
X116415000Y-107720000I-250000J0D01*
G01*
X95460000Y-107720000D02*
G75*
G03*
X95460000Y-107720000I-250000J0D01*
G01*
D11*
%TO.C,J1*%
X91050000Y-135300000D02*
X167950000Y-135300000D01*
D12*
X107700000Y-118746000D02*
G75*
G03*
X107700000Y-118746000I-200000J0D01*
G01*
D11*
X159200000Y-157350000D02*
X159200000Y-137430000D01*
X99800000Y-157350000D02*
X159200000Y-157350000D01*
X99800000Y-137430000D02*
X99800000Y-157350000D01*
X91050000Y-137300000D02*
X91050000Y-119450000D01*
X167950000Y-137300000D02*
X91050000Y-137300000D01*
X167950000Y-119450000D02*
X167950000Y-137300000D01*
X91050000Y-119450000D02*
X167950000Y-119450000D01*
D13*
%TO.C,J4*%
X146630000Y-110725000D02*
X130260000Y-110725000D01*
X146630000Y-101595000D02*
X146630000Y-110725000D01*
X145630000Y-100595000D02*
X146630000Y-101595000D01*
X131260000Y-100595000D02*
X145630000Y-100595000D01*
X130260000Y-101595000D02*
X131260000Y-100595000D01*
X130260000Y-110725000D02*
X130260000Y-101595000D01*
%TO.C,J3*%
X128850000Y-110725000D02*
X112480000Y-110725000D01*
X128850000Y-101595000D02*
X128850000Y-110725000D01*
X127850000Y-100595000D02*
X128850000Y-101595000D01*
X113480000Y-100595000D02*
X127850000Y-100595000D01*
X112480000Y-101595000D02*
X113480000Y-100595000D01*
X112480000Y-110725000D02*
X112480000Y-101595000D01*
%TO.C,J5*%
X167410000Y-110725000D02*
X148040000Y-110725000D01*
X167410000Y-101595000D02*
X167410000Y-110725000D01*
X166410000Y-100595000D02*
X167410000Y-101595000D01*
X149040000Y-100595000D02*
X166410000Y-100595000D01*
X148040000Y-101595000D02*
X149040000Y-100595000D01*
X148040000Y-110725000D02*
X148040000Y-101595000D01*
%TO.C,J2*%
X110895000Y-110725000D02*
X91525000Y-110725000D01*
X110895000Y-101595000D02*
X110895000Y-110725000D01*
X109895000Y-100595000D02*
X110895000Y-101595000D01*
X92525000Y-100595000D02*
X109895000Y-100595000D01*
X91525000Y-101595000D02*
X92525000Y-100595000D01*
X91525000Y-110725000D02*
X91525000Y-101595000D01*
%TO.C,J1*%
D14*
X85998551Y-119854762D02*
X85998551Y-122000724D01*
X85855487Y-122429916D01*
X85569359Y-122716044D01*
X85140166Y-122859108D01*
X84854038Y-122859108D01*
X89002897Y-122859108D02*
X87286128Y-122859108D01*
X88144512Y-122859108D02*
X88144512Y-119854762D01*
X87858384Y-120283955D01*
X87572256Y-120570083D01*
X87286128Y-120713147D01*
%TO.C,J4*%
X131071666Y-111617380D02*
X131071666Y-112331666D01*
X131024047Y-112474523D01*
X130928809Y-112569761D01*
X130785952Y-112617380D01*
X130690714Y-112617380D01*
X131976428Y-111950714D02*
X131976428Y-112617380D01*
X131738333Y-111569761D02*
X131500238Y-112284047D01*
X132119285Y-112284047D01*
%TO.C,J3*%
X113291666Y-111617380D02*
X113291666Y-112331666D01*
X113244047Y-112474523D01*
X113148809Y-112569761D01*
X113005952Y-112617380D01*
X112910714Y-112617380D01*
X113672619Y-111617380D02*
X114291666Y-111617380D01*
X113958333Y-111998333D01*
X114101190Y-111998333D01*
X114196428Y-112045952D01*
X114244047Y-112093571D01*
X114291666Y-112188809D01*
X114291666Y-112426904D01*
X114244047Y-112522142D01*
X114196428Y-112569761D01*
X114101190Y-112617380D01*
X113815476Y-112617380D01*
X113720238Y-112569761D01*
X113672619Y-112522142D01*
%TO.C,J5*%
X148851666Y-111617380D02*
X148851666Y-112331666D01*
X148804047Y-112474523D01*
X148708809Y-112569761D01*
X148565952Y-112617380D01*
X148470714Y-112617380D01*
X149804047Y-111617380D02*
X149327857Y-111617380D01*
X149280238Y-112093571D01*
X149327857Y-112045952D01*
X149423095Y-111998333D01*
X149661190Y-111998333D01*
X149756428Y-112045952D01*
X149804047Y-112093571D01*
X149851666Y-112188809D01*
X149851666Y-112426904D01*
X149804047Y-112522142D01*
X149756428Y-112569761D01*
X149661190Y-112617380D01*
X149423095Y-112617380D01*
X149327857Y-112569761D01*
X149280238Y-112522142D01*
%TO.C,J2*%
X92336666Y-111617380D02*
X92336666Y-112331666D01*
X92289047Y-112474523D01*
X92193809Y-112569761D01*
X92050952Y-112617380D01*
X91955714Y-112617380D01*
X92765238Y-111712619D02*
X92812857Y-111665000D01*
X92908095Y-111617380D01*
X93146190Y-111617380D01*
X93241428Y-111665000D01*
X93289047Y-111712619D01*
X93336666Y-111807857D01*
X93336666Y-111903095D01*
X93289047Y-112045952D01*
X92717619Y-112617380D01*
X93336666Y-112617380D01*
%TD*%
M02*
