%TF.GenerationSoftware,KiCad,Pcbnew,(5.1.10)-1*%
%TF.CreationDate,2021-10-06T11:40:48+03:00*%
%TF.ProjectId,Connector,436f6e6e-6563-4746-9f72-2e6b69636164,rev?*%
%TF.SameCoordinates,Original*%
%TF.FileFunction,Soldermask,Top*%
%TF.FilePolarity,Negative*%
%FSLAX46Y46*%
G04 Gerber Fmt 4.6, Leading zero omitted, Abs format (unit mm)*
G04 Created by KiCad (PCBNEW (5.1.10)-1) date 2021-10-06 11:40:48*
%MOMM*%
%LPD*%
G01*
G04 APERTURE LIST*
%ADD10C,2.625000*%
%ADD11R,2.625000X2.625000*%
%ADD12C,2.850000*%
%ADD13C,1.500000*%
%ADD14C,3.000000*%
%ADD15C,4.500000*%
G04 APERTURE END LIST*
D10*
%TO.C,J1*%
X151500000Y-129500000D03*
X147500000Y-129500000D03*
X143500000Y-129500000D03*
X139500000Y-129500000D03*
X135500000Y-129500000D03*
X131500000Y-129500000D03*
X127500000Y-129500000D03*
X123500000Y-129500000D03*
X119500000Y-129500000D03*
X115500000Y-129500000D03*
X111500000Y-129500000D03*
X107500000Y-129500000D03*
X149500000Y-125500000D03*
X145500000Y-125500000D03*
X141500000Y-125500000D03*
X137500000Y-125500000D03*
X133500000Y-125500000D03*
X129500000Y-125500000D03*
X125500000Y-125500000D03*
X121500000Y-125500000D03*
X117500000Y-125500000D03*
X113500000Y-125500000D03*
X109500000Y-125500000D03*
X151500000Y-121500000D03*
X147500000Y-121500000D03*
X143500000Y-121500000D03*
X139500000Y-121500000D03*
X135500000Y-121500000D03*
X131500000Y-121500000D03*
X127500000Y-121500000D03*
X123500000Y-121500000D03*
X119500000Y-121500000D03*
X115500000Y-121500000D03*
X111500000Y-121500000D03*
D11*
X107500000Y-121500000D03*
D12*
X158000000Y-126000000D03*
X101000000Y-126000000D03*
%TD*%
D13*
%TO.C,J4*%
X142945000Y-112625000D03*
X139945000Y-112625000D03*
X136945000Y-112625000D03*
X133945000Y-112625000D03*
X142945000Y-109625000D03*
X139945000Y-109625000D03*
X136945000Y-109625000D03*
G36*
G01*
X133195000Y-110125000D02*
X133195000Y-109125000D01*
G75*
G02*
X133445000Y-108875000I250000J0D01*
G01*
X134445000Y-108875000D01*
G75*
G02*
X134695000Y-109125000I0J-250000D01*
G01*
X134695000Y-110125000D01*
G75*
G02*
X134445000Y-110375000I-250000J0D01*
G01*
X133445000Y-110375000D01*
G75*
G02*
X133195000Y-110125000I0J250000D01*
G01*
G37*
D14*
X140805000Y-105305000D03*
X136105000Y-105305000D03*
%TD*%
D13*
%TO.C,J3*%
X125165000Y-112625000D03*
X122165000Y-112625000D03*
X119165000Y-112625000D03*
X116165000Y-112625000D03*
X125165000Y-109625000D03*
X122165000Y-109625000D03*
X119165000Y-109625000D03*
G36*
G01*
X115415000Y-110125000D02*
X115415000Y-109125000D01*
G75*
G02*
X115665000Y-108875000I250000J0D01*
G01*
X116665000Y-108875000D01*
G75*
G02*
X116915000Y-109125000I0J-250000D01*
G01*
X116915000Y-110125000D01*
G75*
G02*
X116665000Y-110375000I-250000J0D01*
G01*
X115665000Y-110375000D01*
G75*
G02*
X115415000Y-110125000I0J250000D01*
G01*
G37*
D14*
X123025000Y-105305000D03*
X118325000Y-105305000D03*
%TD*%
D15*
%TO.C,H2*%
X85500000Y-130000000D03*
%TD*%
D13*
%TO.C,J5*%
X163725000Y-112625000D03*
X160725000Y-112625000D03*
X157725000Y-112625000D03*
X154725000Y-112625000D03*
X151725000Y-112625000D03*
X163725000Y-109625000D03*
X160725000Y-109625000D03*
X157725000Y-109625000D03*
X154725000Y-109625000D03*
G36*
G01*
X150975000Y-110125000D02*
X150975000Y-109125000D01*
G75*
G02*
X151225000Y-108875000I250000J0D01*
G01*
X152225000Y-108875000D01*
G75*
G02*
X152475000Y-109125000I0J-250000D01*
G01*
X152475000Y-110125000D01*
G75*
G02*
X152225000Y-110375000I-250000J0D01*
G01*
X151225000Y-110375000D01*
G75*
G02*
X150975000Y-110125000I0J250000D01*
G01*
G37*
D14*
X161585000Y-105305000D03*
X153885000Y-105305000D03*
%TD*%
D13*
%TO.C,J2*%
X107210000Y-112625000D03*
X104210000Y-112625000D03*
X101210000Y-112625000D03*
X98210000Y-112625000D03*
X95210000Y-112625000D03*
X107210000Y-109625000D03*
X104210000Y-109625000D03*
X101210000Y-109625000D03*
X98210000Y-109625000D03*
G36*
G01*
X94460000Y-110125000D02*
X94460000Y-109125000D01*
G75*
G02*
X94710000Y-108875000I250000J0D01*
G01*
X95710000Y-108875000D01*
G75*
G02*
X95960000Y-109125000I0J-250000D01*
G01*
X95960000Y-110125000D01*
G75*
G02*
X95710000Y-110375000I-250000J0D01*
G01*
X94710000Y-110375000D01*
G75*
G02*
X94460000Y-110125000I0J250000D01*
G01*
G37*
D14*
X105070000Y-105305000D03*
X97370000Y-105305000D03*
%TD*%
D15*
%TO.C,H4*%
X173500000Y-130000000D03*
%TD*%
%TO.C,H3*%
X173500000Y-105000000D03*
%TD*%
%TO.C,H1*%
X85500000Y-105000000D03*
%TD*%
M02*
