%TF.GenerationSoftware,KiCad,Pcbnew,(5.1.10)-1*%
%TF.CreationDate,2021-10-06T11:40:48+03:00*%
%TF.ProjectId,Connector,436f6e6e-6563-4746-9f72-2e6b69636164,rev?*%
%TF.SameCoordinates,Original*%
%TF.FileFunction,Copper,L1,Top*%
%TF.FilePolarity,Positive*%
%FSLAX46Y46*%
G04 Gerber Fmt 4.6, Leading zero omitted, Abs format (unit mm)*
G04 Created by KiCad (PCBNEW (5.1.10)-1) date 2021-10-06 11:40:48*
%MOMM*%
%LPD*%
G01*
G04 APERTURE LIST*
%TA.AperFunction,ComponentPad*%
%ADD10C,2.625000*%
%TD*%
%TA.AperFunction,ComponentPad*%
%ADD11R,2.625000X2.625000*%
%TD*%
%TA.AperFunction,ComponentPad*%
%ADD12C,1.500000*%
%TD*%
%TA.AperFunction,Conductor*%
%ADD13C,0.500000*%
%TD*%
%TA.AperFunction,Conductor*%
%ADD14C,2.000000*%
%TD*%
%TA.AperFunction,Conductor*%
%ADD15C,1.000000*%
%TD*%
G04 APERTURE END LIST*
D10*
%TO.P,J1,35*%
%TO.N,/NTC_FW_1*%
X151500000Y-129500000D03*
%TO.P,J1,34*%
%TO.N,/NTC_FW_2*%
X147500000Y-129500000D03*
%TO.P,J1,33*%
%TO.N,/NTC_AW_1*%
X143500000Y-129500000D03*
%TO.P,J1,32*%
%TO.N,/NTC_AW_2*%
X139500000Y-129500000D03*
%TO.P,J1,31*%
%TO.N,/Accelerator_1*%
X135500000Y-129500000D03*
%TO.P,J1,30*%
%TO.N,/Accelerator_2*%
X131500000Y-129500000D03*
%TO.P,J1,29*%
%TO.N,/LeftSupport*%
X127500000Y-129500000D03*
%TO.P,J1,28*%
%TO.N,/RightSupport*%
X123500000Y-129500000D03*
%TO.P,J1,27*%
%TO.N,GND*%
X119500000Y-129500000D03*
%TO.P,J1,26*%
X115500000Y-129500000D03*
%TO.P,J1,25*%
%TO.N,VDD*%
X111500000Y-129500000D03*
%TO.P,J1,24*%
X107500000Y-129500000D03*
%TO.P,J1,23*%
%TO.N,/HALL_1*%
X149500000Y-125500000D03*
%TO.P,J1,22*%
%TO.N,/HALL_2*%
X145500000Y-125500000D03*
%TO.P,J1,21*%
%TO.N,/HALL_3*%
X141500000Y-125500000D03*
%TO.P,J1,20*%
%TO.N,/Brake_1*%
X137500000Y-125500000D03*
%TO.P,J1,19*%
%TO.N,/Brake_2*%
X133500000Y-125500000D03*
%TO.P,J1,18*%
%TO.N,/GearParking*%
X129500000Y-125500000D03*
%TO.P,J1,17*%
%TO.N,/GearReverse*%
X125500000Y-125500000D03*
%TO.P,J1,16*%
%TO.N,/GearDrive*%
X121500000Y-125500000D03*
%TO.P,J1,15*%
%TO.N,/Pump*%
X117500000Y-125500000D03*
%TO.P,J1,14*%
%TO.N,/ReverseLight*%
X113500000Y-125500000D03*
%TO.P,J1,13*%
%TO.N,/ShuntContactorOn*%
X109500000Y-125500000D03*
%TO.P,J1,12*%
%TO.N,GNDD*%
X151500000Y-121500000D03*
%TO.P,J1,11*%
%TO.N,+5VD*%
X147500000Y-121500000D03*
%TO.P,J1,10*%
%TO.N,/CAN_L*%
X143500000Y-121500000D03*
%TO.P,J1,9*%
%TO.N,/CAN_H*%
X139500000Y-121500000D03*
%TO.P,J1,8*%
%TO.N,GNDA*%
X135500000Y-121500000D03*
%TO.P,J1,7*%
%TO.N,+5VA*%
X131500000Y-121500000D03*
%TO.P,J1,6*%
%TO.N,/EmergencyStop*%
X127500000Y-121500000D03*
%TO.P,J1,5*%
%TO.N,/IgnitionOn*%
X123500000Y-121500000D03*
%TO.P,J1,4*%
%TO.N,/HighVoltageOn*%
X119500000Y-121500000D03*
%TO.P,J1,3*%
%TO.N,/PowerContactorOn*%
X115500000Y-121500000D03*
%TO.P,J1,2*%
%TO.N,/ParkingBrake*%
X111500000Y-121500000D03*
D11*
%TO.P,J1,1*%
%TO.N,/PowerSteeringPWM*%
X107500000Y-121500000D03*
%TD*%
D12*
%TO.P,J4,8*%
%TO.N,/CAN_H*%
X142945000Y-112625000D03*
%TO.P,J4,7*%
%TO.N,/Accelerator_1*%
X139945000Y-112625000D03*
%TO.P,J4,6*%
%TO.N,/Accelerator_2*%
X136945000Y-112625000D03*
%TO.P,J4,5*%
%TO.N,GNDA*%
X133945000Y-112625000D03*
%TO.P,J4,4*%
%TO.N,/CAN_L*%
X142945000Y-109625000D03*
%TO.P,J4,3*%
%TO.N,/Brake_1*%
X139945000Y-109625000D03*
%TO.P,J4,2*%
%TO.N,/Brake_2*%
X136945000Y-109625000D03*
%TO.P,J4,1*%
%TO.N,+5VA*%
%TA.AperFunction,ComponentPad*%
G36*
G01*
X133195000Y-110125000D02*
X133195000Y-109125000D01*
G75*
G02*
X133445000Y-108875000I250000J0D01*
G01*
X134445000Y-108875000D01*
G75*
G02*
X134695000Y-109125000I0J-250000D01*
G01*
X134695000Y-110125000D01*
G75*
G02*
X134445000Y-110375000I-250000J0D01*
G01*
X133445000Y-110375000D01*
G75*
G02*
X133195000Y-110125000I0J250000D01*
G01*
G37*
%TD.AperFunction*%
%TD*%
%TO.P,J3,8*%
%TO.N,/LeftSupport*%
X125165000Y-112625000D03*
%TO.P,J3,7*%
%TO.N,/RightSupport*%
X122165000Y-112625000D03*
%TO.P,J3,6*%
%TO.N,/IgnitionOn*%
X119165000Y-112625000D03*
%TO.P,J3,5*%
%TO.N,/HighVoltageOn*%
X116165000Y-112625000D03*
%TO.P,J3,4*%
%TO.N,/EmergencyStop*%
X125165000Y-109625000D03*
%TO.P,J3,3*%
%TO.N,/GearParking*%
X122165000Y-109625000D03*
%TO.P,J3,2*%
%TO.N,/GearReverse*%
X119165000Y-109625000D03*
%TO.P,J3,1*%
%TO.N,/GearDrive*%
%TA.AperFunction,ComponentPad*%
G36*
G01*
X115415000Y-110125000D02*
X115415000Y-109125000D01*
G75*
G02*
X115665000Y-108875000I250000J0D01*
G01*
X116665000Y-108875000D01*
G75*
G02*
X116915000Y-109125000I0J-250000D01*
G01*
X116915000Y-110125000D01*
G75*
G02*
X116665000Y-110375000I-250000J0D01*
G01*
X115665000Y-110375000D01*
G75*
G02*
X115415000Y-110125000I0J250000D01*
G01*
G37*
%TD.AperFunction*%
%TD*%
%TO.P,J5,10*%
%TO.N,/NTC_AW_1*%
X163725000Y-112625000D03*
%TO.P,J5,9*%
%TO.N,/NTC_FW_1*%
X160725000Y-112625000D03*
%TO.P,J5,8*%
%TO.N,GNDD*%
X157725000Y-112625000D03*
%TO.P,J5,7*%
X154725000Y-112625000D03*
%TO.P,J5,6*%
%TO.N,/HALL_2*%
X151725000Y-112625000D03*
%TO.P,J5,5*%
%TO.N,/NTC_AW_2*%
X163725000Y-109625000D03*
%TO.P,J5,4*%
%TO.N,/NTC_FW_2*%
X160725000Y-109625000D03*
%TO.P,J5,3*%
%TO.N,+5VD*%
X157725000Y-109625000D03*
%TO.P,J5,2*%
%TO.N,/HALL_1*%
X154725000Y-109625000D03*
%TO.P,J5,1*%
%TO.N,/HALL_3*%
%TA.AperFunction,ComponentPad*%
G36*
G01*
X150975000Y-110125000D02*
X150975000Y-109125000D01*
G75*
G02*
X151225000Y-108875000I250000J0D01*
G01*
X152225000Y-108875000D01*
G75*
G02*
X152475000Y-109125000I0J-250000D01*
G01*
X152475000Y-110125000D01*
G75*
G02*
X152225000Y-110375000I-250000J0D01*
G01*
X151225000Y-110375000D01*
G75*
G02*
X150975000Y-110125000I0J250000D01*
G01*
G37*
%TD.AperFunction*%
%TD*%
%TO.P,J2,10*%
%TO.N,/Pump*%
X107210000Y-112625000D03*
%TO.P,J2,9*%
%TO.N,/ReverseLight*%
X104210000Y-112625000D03*
%TO.P,J2,8*%
%TO.N,/ShuntContactorOn*%
X101210000Y-112625000D03*
%TO.P,J2,7*%
%TO.N,GND*%
X98210000Y-112625000D03*
%TO.P,J2,6*%
X95210000Y-112625000D03*
%TO.P,J2,5*%
%TO.N,/PowerContactorOn*%
X107210000Y-109625000D03*
%TO.P,J2,4*%
%TO.N,/ParkingBrake*%
X104210000Y-109625000D03*
%TO.P,J2,3*%
%TO.N,/PowerSteeringPWM*%
X101210000Y-109625000D03*
%TO.P,J2,2*%
%TO.N,VDD*%
X98210000Y-109625000D03*
%TO.P,J2,1*%
%TA.AperFunction,ComponentPad*%
G36*
G01*
X94460000Y-110125000D02*
X94460000Y-109125000D01*
G75*
G02*
X94710000Y-108875000I250000J0D01*
G01*
X95710000Y-108875000D01*
G75*
G02*
X95960000Y-109125000I0J-250000D01*
G01*
X95960000Y-110125000D01*
G75*
G02*
X95710000Y-110375000I-250000J0D01*
G01*
X94710000Y-110375000D01*
G75*
G02*
X94460000Y-110125000I0J250000D01*
G01*
G37*
%TD.AperFunction*%
%TD*%
D13*
%TO.N,/PowerSteeringPWM*%
X101210000Y-109625000D02*
X102703000Y-111118000D01*
X102703000Y-116703000D02*
X107500000Y-121500000D01*
X102703000Y-111118000D02*
X102703000Y-116703000D01*
%TO.N,/Pump*%
X107210000Y-112625000D02*
X107210000Y-116164000D01*
X107210000Y-116164000D02*
X107910000Y-116864000D01*
X107910000Y-116864000D02*
X110831000Y-116864000D01*
X110831000Y-116864000D02*
X113498000Y-119531000D01*
X113498000Y-119531000D02*
X113498000Y-122579000D01*
X113498000Y-122579000D02*
X114641000Y-123722000D01*
X115722000Y-123722000D02*
X117500000Y-125500000D01*
X114641000Y-123722000D02*
X115722000Y-123722000D01*
%TO.N,/PowerContactorOn*%
X107210000Y-109625000D02*
X108672000Y-111087000D01*
X108672000Y-111087000D02*
X108672000Y-114832000D01*
X108672000Y-114832000D02*
X109688000Y-115848000D01*
X109688000Y-115848000D02*
X111466000Y-115848000D01*
X115500000Y-119882000D02*
X115500000Y-121500000D01*
X111466000Y-115848000D02*
X115500000Y-119882000D01*
%TO.N,/ShuntContactorOn*%
X101210000Y-112625000D02*
X101210000Y-119943000D01*
X106767000Y-125500000D02*
X109500000Y-125500000D01*
X101210000Y-119943000D02*
X106767000Y-125500000D01*
%TO.N,/ReverseLight*%
X104210000Y-112625000D02*
X104210000Y-116339000D01*
X104210000Y-116339000D02*
X107148000Y-119277000D01*
X107148000Y-119277000D02*
X108926000Y-119277000D01*
X108926000Y-119277000D02*
X109561000Y-119912000D01*
X109561000Y-119912000D02*
X109561000Y-122579000D01*
X109561000Y-122579000D02*
X110958000Y-123976000D01*
X111976000Y-123976000D02*
X113500000Y-125500000D01*
X110958000Y-123976000D02*
X111976000Y-123976000D01*
%TO.N,/ParkingBrake*%
X104210000Y-109625000D02*
X105751000Y-111166000D01*
X105751000Y-111166000D02*
X105751000Y-116356000D01*
X105751000Y-116356000D02*
X107402000Y-118007000D01*
X107402000Y-118007000D02*
X109942000Y-118007000D01*
X111500000Y-119565000D02*
X111500000Y-121500000D01*
X109942000Y-118007000D02*
X111500000Y-119565000D01*
D14*
%TO.N,VDD*%
X111500000Y-129500000D02*
X107500000Y-129500000D01*
X107500000Y-129500000D02*
X97305000Y-129500000D01*
X97305000Y-129500000D02*
X90765000Y-122960000D01*
X90765000Y-122960000D02*
X90765000Y-112165000D01*
X93305000Y-109625000D02*
X98210000Y-109625000D01*
X90765000Y-112165000D02*
X93305000Y-109625000D01*
D13*
%TO.N,/GearParking*%
X129500000Y-125500000D02*
X127500000Y-123500000D01*
X127500000Y-123500000D02*
X126500000Y-123500000D01*
X126500000Y-123500000D02*
X125500000Y-122500000D01*
X125500000Y-122500000D02*
X125500000Y-120000000D01*
X125500000Y-120000000D02*
X120500000Y-115000000D01*
X120500000Y-111290000D02*
X122165000Y-109625000D01*
X120500000Y-115000000D02*
X120500000Y-111290000D01*
%TO.N,/EmergencyStop*%
X127500000Y-121500000D02*
X127500000Y-119563000D01*
X127500000Y-119563000D02*
X123658000Y-115721000D01*
X123658000Y-111132000D02*
X125165000Y-109625000D01*
X123658000Y-115721000D02*
X123658000Y-111132000D01*
%TO.N,/GearDrive*%
X121500000Y-125500000D02*
X119500000Y-123500000D01*
X119500000Y-123500000D02*
X118500000Y-123500000D01*
X118500000Y-123500000D02*
X117500000Y-122500000D01*
X117500000Y-122500000D02*
X117500000Y-119500000D01*
X117500000Y-119500000D02*
X113000000Y-115000000D01*
X113000000Y-115000000D02*
X113000000Y-111000000D01*
X114375000Y-109625000D02*
X116165000Y-109625000D01*
X113000000Y-111000000D02*
X114375000Y-109625000D01*
%TO.N,/GearReverse*%
X125500000Y-125500000D02*
X123500000Y-123500000D01*
X123500000Y-123500000D02*
X122500000Y-123500000D01*
X122500000Y-123500000D02*
X121500000Y-122500000D01*
X121500000Y-122500000D02*
X121500000Y-120000000D01*
X121500000Y-120000000D02*
X117500000Y-116000000D01*
X117500000Y-111290000D02*
X119165000Y-109625000D01*
X117500000Y-116000000D02*
X117500000Y-111290000D01*
%TO.N,/IgnitionOn*%
X123500000Y-121500000D02*
X123500000Y-120000000D01*
X119165000Y-115665000D02*
X119165000Y-112625000D01*
X123500000Y-120000000D02*
X119165000Y-115665000D01*
%TO.N,/HighVoltageOn*%
X119500000Y-121500000D02*
X119500000Y-120000000D01*
X116165000Y-116665000D02*
X116165000Y-112625000D01*
X119500000Y-120000000D02*
X116165000Y-116665000D01*
%TO.N,/CAN_L*%
X143500000Y-121500000D02*
X144359000Y-120641000D01*
X144359000Y-111039000D02*
X142945000Y-109625000D01*
X144359000Y-120641000D02*
X144359000Y-111039000D01*
%TO.N,/CAN_H*%
X142945000Y-112625000D02*
X142945000Y-112783000D01*
X142945000Y-112783000D02*
X142962000Y-112800000D01*
X142962000Y-118038000D02*
X139500000Y-121500000D01*
X142962000Y-112800000D02*
X142962000Y-118038000D01*
%TO.N,/Brake_2*%
X133500000Y-125500000D02*
X133500000Y-116039000D01*
X133500000Y-116039000D02*
X135469000Y-114070000D01*
X135469000Y-111101000D02*
X136945000Y-109625000D01*
X135469000Y-114070000D02*
X135469000Y-111101000D01*
%TO.N,/Brake_1*%
X138390000Y-111180000D02*
X139945000Y-109625000D01*
X138390000Y-114578000D02*
X138390000Y-111180000D01*
X137500000Y-115468000D02*
X138390000Y-114578000D01*
X137500000Y-125500000D02*
X137500000Y-115468000D01*
D15*
%TO.N,+5VA*%
X133195000Y-109625000D02*
X133945000Y-109625000D01*
X131500000Y-111320000D02*
X133195000Y-109625000D01*
X131500000Y-121500000D02*
X131500000Y-111320000D01*
D13*
%TO.N,/NTC_AW_1*%
X143500000Y-129500000D02*
X145723000Y-131723000D01*
X145723000Y-131723000D02*
X156043000Y-131723000D01*
X163725000Y-124041000D02*
X163725000Y-112625000D01*
X156043000Y-131723000D02*
X163725000Y-124041000D01*
%TO.N,/NTC_AW_2*%
X165314000Y-111214000D02*
X163725000Y-109625000D01*
X165314000Y-124484000D02*
X165314000Y-111214000D01*
X157059000Y-132739000D02*
X165314000Y-124484000D01*
X142739000Y-132739000D02*
X157059000Y-132739000D01*
X139500000Y-129500000D02*
X142739000Y-132739000D01*
%TO.N,/NTC_FW_1*%
X151500000Y-129408000D02*
X151500000Y-129500000D01*
X151500000Y-129500000D02*
X151500000Y-128900000D01*
X160725000Y-119675000D02*
X160725000Y-118117000D01*
X151500000Y-128900000D02*
X160725000Y-119675000D01*
X160725000Y-118117000D02*
X160725000Y-112625000D01*
X160725000Y-118786000D02*
X160725000Y-118117000D01*
%TO.N,/NTC_FW_2*%
X159218000Y-111132000D02*
X160725000Y-109625000D01*
X147500000Y-129500000D02*
X149262501Y-127737499D01*
X149262501Y-127737499D02*
X150376501Y-127737499D01*
X159218000Y-118896000D02*
X159218000Y-118642000D01*
X150376501Y-127737499D02*
X159218000Y-118896000D01*
X159218000Y-118642000D02*
X159218000Y-111132000D01*
D15*
%TO.N,+5VD*%
X147500000Y-121500000D02*
X147500000Y-109024000D01*
X147500000Y-109024000D02*
X148931000Y-107593000D01*
X148931000Y-107593000D02*
X156805000Y-107593000D01*
X157725000Y-108513000D02*
X157725000Y-109625000D01*
X156805000Y-107593000D02*
X157725000Y-108513000D01*
D13*
%TO.N,/HALL_3*%
X141500000Y-125500000D02*
X143532000Y-123468000D01*
X143532000Y-123468000D02*
X148677000Y-123468000D01*
X148677000Y-123468000D02*
X149566000Y-122579000D01*
X149566000Y-111784000D02*
X151725000Y-109625000D01*
X149566000Y-122579000D02*
X149566000Y-111784000D01*
%TO.N,/HALL_1*%
X149500000Y-125500000D02*
X150709000Y-125500000D01*
X150709000Y-125500000D02*
X156297000Y-119912000D01*
X156297000Y-111197000D02*
X154725000Y-109625000D01*
X156297000Y-119912000D02*
X156297000Y-111197000D01*
%TD*%
M02*
