%TF.GenerationSoftware,KiCad,Pcbnew,(5.1.10)-1*%
%TF.CreationDate,2022-05-18T10:51:57+03:00*%
%TF.ProjectId,Connector,436f6e6e-6563-4746-9f72-2e6b69636164,A*%
%TF.SameCoordinates,Original*%
%TF.FileFunction,Legend,Bot*%
%TF.FilePolarity,Positive*%
%FSLAX46Y46*%
G04 Gerber Fmt 4.6, Leading zero omitted, Abs format (unit mm)*
G04 Created by KiCad (PCBNEW (5.1.10)-1) date 2022-05-18 10:51:57*
%MOMM*%
%LPD*%
G01*
G04 APERTURE LIST*
%ADD10C,0.500000*%
%ADD11C,0.300000*%
%ADD12C,0.010000*%
G04 APERTURE END LIST*
D10*
X107779000Y-118769000D02*
G75*
G03*
X107779000Y-118769000I-250000J0D01*
G01*
D11*
X154130000Y-125313571D02*
X154130000Y-126385000D01*
X154201428Y-126599285D01*
X154344285Y-126742142D01*
X154558571Y-126813571D01*
X154701428Y-126813571D01*
X152630000Y-126813571D02*
X153487142Y-126813571D01*
X153058571Y-126813571D02*
X153058571Y-125313571D01*
X153201428Y-125527857D01*
X153344285Y-125670714D01*
X153487142Y-125742142D01*
D10*
X151975000Y-107720000D02*
G75*
G03*
X151975000Y-107720000I-250000J0D01*
G01*
X134195000Y-107720000D02*
G75*
G03*
X134195000Y-107720000I-250000J0D01*
G01*
X116415000Y-107720000D02*
G75*
G03*
X116415000Y-107720000I-250000J0D01*
G01*
X95460000Y-107720000D02*
G75*
G03*
X95460000Y-107720000I-250000J0D01*
G01*
D11*
X157940000Y-101183571D02*
X157940000Y-102255000D01*
X158011428Y-102469285D01*
X158154285Y-102612142D01*
X158368571Y-102683571D01*
X158511428Y-102683571D01*
X156511428Y-101183571D02*
X157225714Y-101183571D01*
X157297142Y-101897857D01*
X157225714Y-101826428D01*
X157082857Y-101755000D01*
X156725714Y-101755000D01*
X156582857Y-101826428D01*
X156511428Y-101897857D01*
X156440000Y-102040714D01*
X156440000Y-102397857D01*
X156511428Y-102540714D01*
X156582857Y-102612142D01*
X156725714Y-102683571D01*
X157082857Y-102683571D01*
X157225714Y-102612142D01*
X157297142Y-102540714D01*
X138890000Y-101183571D02*
X138890000Y-102255000D01*
X138961428Y-102469285D01*
X139104285Y-102612142D01*
X139318571Y-102683571D01*
X139461428Y-102683571D01*
X137532857Y-101683571D02*
X137532857Y-102683571D01*
X137890000Y-101112142D02*
X138247142Y-102183571D01*
X137318571Y-102183571D01*
X121110000Y-101183571D02*
X121110000Y-102255000D01*
X121181428Y-102469285D01*
X121324285Y-102612142D01*
X121538571Y-102683571D01*
X121681428Y-102683571D01*
X120538571Y-101183571D02*
X119610000Y-101183571D01*
X120110000Y-101755000D01*
X119895714Y-101755000D01*
X119752857Y-101826428D01*
X119681428Y-101897857D01*
X119610000Y-102040714D01*
X119610000Y-102397857D01*
X119681428Y-102540714D01*
X119752857Y-102612142D01*
X119895714Y-102683571D01*
X120324285Y-102683571D01*
X120467142Y-102612142D01*
X120538571Y-102540714D01*
X101425000Y-101183571D02*
X101425000Y-102255000D01*
X101496428Y-102469285D01*
X101639285Y-102612142D01*
X101853571Y-102683571D01*
X101996428Y-102683571D01*
X100782142Y-101326428D02*
X100710714Y-101255000D01*
X100567857Y-101183571D01*
X100210714Y-101183571D01*
X100067857Y-101255000D01*
X99996428Y-101326428D01*
X99925000Y-101469285D01*
X99925000Y-101612142D01*
X99996428Y-101826428D01*
X100853571Y-102683571D01*
X99925000Y-102683571D01*
X164210428Y-133290571D02*
X164710428Y-132576285D01*
X165067571Y-133290571D02*
X165067571Y-131790571D01*
X164496142Y-131790571D01*
X164353285Y-131862000D01*
X164281857Y-131933428D01*
X164210428Y-132076285D01*
X164210428Y-132290571D01*
X164281857Y-132433428D01*
X164353285Y-132504857D01*
X164496142Y-132576285D01*
X165067571Y-132576285D01*
X162996142Y-133219142D02*
X163139000Y-133290571D01*
X163424714Y-133290571D01*
X163567571Y-133219142D01*
X163639000Y-133076285D01*
X163639000Y-132504857D01*
X163567571Y-132362000D01*
X163424714Y-132290571D01*
X163139000Y-132290571D01*
X162996142Y-132362000D01*
X162924714Y-132504857D01*
X162924714Y-132647714D01*
X163639000Y-132790571D01*
X162424714Y-132290571D02*
X162067571Y-133290571D01*
X161710428Y-132290571D01*
X159496142Y-132504857D02*
X159281857Y-132576285D01*
X159210428Y-132647714D01*
X159139000Y-132790571D01*
X159139000Y-133004857D01*
X159210428Y-133147714D01*
X159281857Y-133219142D01*
X159424714Y-133290571D01*
X159996142Y-133290571D01*
X159996142Y-131790571D01*
X159496142Y-131790571D01*
X159353285Y-131862000D01*
X159281857Y-131933428D01*
X159210428Y-132076285D01*
X159210428Y-132219142D01*
X159281857Y-132362000D01*
X159353285Y-132433428D01*
X159496142Y-132504857D01*
X159996142Y-132504857D01*
D12*
%TO.C,G\u002A\u002A\u002A*%
G36*
X174300266Y-122405896D02*
G01*
X173941746Y-122613748D01*
X173537309Y-122806017D01*
X173103912Y-122976026D01*
X172658509Y-123117096D01*
X172235500Y-123219072D01*
X172103189Y-123244118D01*
X171980995Y-123262859D01*
X171856005Y-123276181D01*
X171715304Y-123284965D01*
X171545979Y-123290097D01*
X171335115Y-123292459D01*
X171156000Y-123292938D01*
X170875663Y-123291661D01*
X170644289Y-123286393D01*
X170447388Y-123275545D01*
X170270471Y-123257528D01*
X170099047Y-123230753D01*
X169918624Y-123193632D01*
X169714714Y-123144575D01*
X169647875Y-123127570D01*
X169309444Y-123027435D01*
X168958525Y-122899639D01*
X168612931Y-122751940D01*
X168290477Y-122592095D01*
X168008975Y-122427864D01*
X167946335Y-122386520D01*
X167851258Y-122324329D01*
X167776145Y-122279560D01*
X167736673Y-122261533D01*
X167736018Y-122261500D01*
X167704853Y-122282795D01*
X167638773Y-122340920D01*
X167547183Y-122427232D01*
X167439491Y-122533086D01*
X167429113Y-122543495D01*
X167148423Y-122825491D01*
X167445649Y-123022642D01*
X167792120Y-123232561D01*
X168180653Y-123433563D01*
X168591898Y-123617281D01*
X169006505Y-123775348D01*
X169405121Y-123899396D01*
X169568500Y-123940591D01*
X169945958Y-124014584D01*
X170352519Y-124070417D01*
X170768758Y-124106640D01*
X171175251Y-124121806D01*
X171552573Y-124114465D01*
X171727500Y-124101590D01*
X172311268Y-124019519D01*
X172892312Y-123887180D01*
X173456367Y-123708757D01*
X173989167Y-123488436D01*
X174235750Y-123365796D01*
X174366812Y-123294120D01*
X174511469Y-123211031D01*
X174659463Y-123122913D01*
X174800536Y-123036150D01*
X174924429Y-122957128D01*
X175020884Y-122892232D01*
X175079641Y-122847847D01*
X175092849Y-122832338D01*
X175071693Y-122804935D01*
X175013838Y-122742113D01*
X174927890Y-122652949D01*
X174822455Y-122546519D01*
X174812071Y-122536172D01*
X174531141Y-122256544D01*
X174300266Y-122405896D01*
G37*
X174300266Y-122405896D02*
X173941746Y-122613748D01*
X173537309Y-122806017D01*
X173103912Y-122976026D01*
X172658509Y-123117096D01*
X172235500Y-123219072D01*
X172103189Y-123244118D01*
X171980995Y-123262859D01*
X171856005Y-123276181D01*
X171715304Y-123284965D01*
X171545979Y-123290097D01*
X171335115Y-123292459D01*
X171156000Y-123292938D01*
X170875663Y-123291661D01*
X170644289Y-123286393D01*
X170447388Y-123275545D01*
X170270471Y-123257528D01*
X170099047Y-123230753D01*
X169918624Y-123193632D01*
X169714714Y-123144575D01*
X169647875Y-123127570D01*
X169309444Y-123027435D01*
X168958525Y-122899639D01*
X168612931Y-122751940D01*
X168290477Y-122592095D01*
X168008975Y-122427864D01*
X167946335Y-122386520D01*
X167851258Y-122324329D01*
X167776145Y-122279560D01*
X167736673Y-122261533D01*
X167736018Y-122261500D01*
X167704853Y-122282795D01*
X167638773Y-122340920D01*
X167547183Y-122427232D01*
X167439491Y-122533086D01*
X167429113Y-122543495D01*
X167148423Y-122825491D01*
X167445649Y-123022642D01*
X167792120Y-123232561D01*
X168180653Y-123433563D01*
X168591898Y-123617281D01*
X169006505Y-123775348D01*
X169405121Y-123899396D01*
X169568500Y-123940591D01*
X169945958Y-124014584D01*
X170352519Y-124070417D01*
X170768758Y-124106640D01*
X171175251Y-124121806D01*
X171552573Y-124114465D01*
X171727500Y-124101590D01*
X172311268Y-124019519D01*
X172892312Y-123887180D01*
X173456367Y-123708757D01*
X173989167Y-123488436D01*
X174235750Y-123365796D01*
X174366812Y-123294120D01*
X174511469Y-123211031D01*
X174659463Y-123122913D01*
X174800536Y-123036150D01*
X174924429Y-122957128D01*
X175020884Y-122892232D01*
X175079641Y-122847847D01*
X175092849Y-122832338D01*
X175071693Y-122804935D01*
X175013838Y-122742113D01*
X174927890Y-122652949D01*
X174822455Y-122546519D01*
X174812071Y-122536172D01*
X174531141Y-122256544D01*
X174300266Y-122405896D01*
G36*
X169997070Y-120749617D02*
G01*
X169901205Y-120786497D01*
X169860722Y-120849180D01*
X169860081Y-120885681D01*
X169867427Y-120928035D01*
X169886106Y-120952743D01*
X169929787Y-120963912D01*
X170012137Y-120965647D01*
X170117259Y-120962936D01*
X170242745Y-120960447D01*
X170323844Y-120965786D01*
X170379620Y-120984338D01*
X170429138Y-121021486D01*
X170471942Y-121063091D01*
X170561458Y-121189029D01*
X170605424Y-121331813D01*
X170604391Y-121476318D01*
X170558911Y-121607419D01*
X170469534Y-121709991D01*
X170447834Y-121724882D01*
X170381052Y-121758684D01*
X170304199Y-121776426D01*
X170197397Y-121781187D01*
X170100313Y-121778691D01*
X169854250Y-121768904D01*
X169854250Y-121868358D01*
X169863441Y-121940334D01*
X169904194Y-121974800D01*
X169953469Y-121987656D01*
X170107293Y-122003520D01*
X170280268Y-121999196D01*
X170435443Y-121975963D01*
X170457500Y-121970195D01*
X170632525Y-121891643D01*
X170761688Y-121769983D01*
X170842995Y-121608014D01*
X170874454Y-121408538D01*
X170874786Y-121383765D01*
X170846227Y-121188037D01*
X170764558Y-121020835D01*
X170635793Y-120887520D01*
X170465949Y-120793454D01*
X170261038Y-120744000D01*
X170150005Y-120737677D01*
X169997070Y-120749617D01*
G37*
X169997070Y-120749617D02*
X169901205Y-120786497D01*
X169860722Y-120849180D01*
X169860081Y-120885681D01*
X169867427Y-120928035D01*
X169886106Y-120952743D01*
X169929787Y-120963912D01*
X170012137Y-120965647D01*
X170117259Y-120962936D01*
X170242745Y-120960447D01*
X170323844Y-120965786D01*
X170379620Y-120984338D01*
X170429138Y-121021486D01*
X170471942Y-121063091D01*
X170561458Y-121189029D01*
X170605424Y-121331813D01*
X170604391Y-121476318D01*
X170558911Y-121607419D01*
X170469534Y-121709991D01*
X170447834Y-121724882D01*
X170381052Y-121758684D01*
X170304199Y-121776426D01*
X170197397Y-121781187D01*
X170100313Y-121778691D01*
X169854250Y-121768904D01*
X169854250Y-121868358D01*
X169863441Y-121940334D01*
X169904194Y-121974800D01*
X169953469Y-121987656D01*
X170107293Y-122003520D01*
X170280268Y-121999196D01*
X170435443Y-121975963D01*
X170457500Y-121970195D01*
X170632525Y-121891643D01*
X170761688Y-121769983D01*
X170842995Y-121608014D01*
X170874454Y-121408538D01*
X170874786Y-121383765D01*
X170846227Y-121188037D01*
X170764558Y-121020835D01*
X170635793Y-120887520D01*
X170465949Y-120793454D01*
X170261038Y-120744000D01*
X170150005Y-120737677D01*
X169997070Y-120749617D01*
G36*
X173219750Y-120959750D02*
G01*
X173632500Y-120959750D01*
X173632500Y-121975750D01*
X173918250Y-121975750D01*
X173918250Y-120959750D01*
X174331000Y-120959750D01*
X174331000Y-120769250D01*
X173219750Y-120769250D01*
X173219750Y-120959750D01*
G37*
X173219750Y-120959750D02*
X173632500Y-120959750D01*
X173632500Y-121975750D01*
X173918250Y-121975750D01*
X173918250Y-120959750D01*
X174331000Y-120959750D01*
X174331000Y-120769250D01*
X173219750Y-120769250D01*
X173219750Y-120959750D01*
G36*
X171632250Y-120959750D02*
G01*
X172267250Y-120959750D01*
X172267250Y-121245500D01*
X171727500Y-121245500D01*
X171727500Y-121467750D01*
X172267250Y-121467750D01*
X172267250Y-121785250D01*
X171600500Y-121785250D01*
X171600500Y-121975750D01*
X172521250Y-121975750D01*
X172521250Y-120769250D01*
X171632250Y-120769250D01*
X171632250Y-120959750D01*
G37*
X171632250Y-120959750D02*
X172267250Y-120959750D01*
X172267250Y-121245500D01*
X171727500Y-121245500D01*
X171727500Y-121467750D01*
X172267250Y-121467750D01*
X172267250Y-121785250D01*
X171600500Y-121785250D01*
X171600500Y-121975750D01*
X172521250Y-121975750D01*
X172521250Y-120769250D01*
X171632250Y-120769250D01*
X171632250Y-120959750D01*
G36*
X168838250Y-121245500D02*
G01*
X168235000Y-121245500D01*
X168235000Y-120769250D01*
X167981000Y-120769250D01*
X167981000Y-121975750D01*
X168235000Y-121975750D01*
X168235000Y-121467750D01*
X168838250Y-121467750D01*
X168838250Y-121975750D01*
X169092250Y-121975750D01*
X169092250Y-120769250D01*
X168838250Y-120769250D01*
X168838250Y-121245500D01*
G37*
X168838250Y-121245500D02*
X168235000Y-121245500D01*
X168235000Y-120769250D01*
X167981000Y-120769250D01*
X167981000Y-121975750D01*
X168235000Y-121975750D01*
X168235000Y-121467750D01*
X168838250Y-121467750D01*
X168838250Y-121975750D01*
X169092250Y-121975750D01*
X169092250Y-120769250D01*
X168838250Y-120769250D01*
X168838250Y-121245500D01*
G36*
X176295746Y-113676862D02*
G01*
X176188612Y-113785154D01*
X176100188Y-113877688D01*
X176039096Y-113945210D01*
X176013956Y-113978466D01*
X176013751Y-113979510D01*
X176029519Y-114014236D01*
X176071950Y-114089870D01*
X176133734Y-114193677D01*
X176178133Y-114265922D01*
X176470226Y-114795362D01*
X176704520Y-115349521D01*
X176880088Y-115924876D01*
X176996007Y-116517905D01*
X177051351Y-117125087D01*
X177052321Y-117594089D01*
X177000547Y-118212102D01*
X176890115Y-118806488D01*
X176720381Y-119379431D01*
X176490706Y-119933117D01*
X176214862Y-120445847D01*
X176137784Y-120575623D01*
X176074364Y-120685145D01*
X176030928Y-120763288D01*
X176013803Y-120798930D01*
X176013750Y-120799450D01*
X176034985Y-120827709D01*
X176092949Y-120891283D01*
X176179030Y-120981027D01*
X176284619Y-121087799D01*
X176295395Y-121098538D01*
X176577040Y-121378878D01*
X176762437Y-121097876D01*
X177089642Y-120544821D01*
X177363884Y-119959498D01*
X177582903Y-119347867D01*
X177744441Y-118715885D01*
X177813558Y-118324500D01*
X177842488Y-118063206D01*
X177860459Y-117760008D01*
X177867507Y-117434266D01*
X177863662Y-117105340D01*
X177848959Y-116792590D01*
X177823431Y-116515375D01*
X177810307Y-116419500D01*
X177745771Y-116064367D01*
X177661037Y-115697967D01*
X177562735Y-115346725D01*
X177475724Y-115086000D01*
X177382737Y-114853819D01*
X177263884Y-114590864D01*
X177129112Y-114316895D01*
X176988370Y-114051672D01*
X176851605Y-113814956D01*
X176774646Y-113693398D01*
X176577742Y-113396172D01*
X176295746Y-113676862D01*
G37*
X176295746Y-113676862D02*
X176188612Y-113785154D01*
X176100188Y-113877688D01*
X176039096Y-113945210D01*
X176013956Y-113978466D01*
X176013751Y-113979510D01*
X176029519Y-114014236D01*
X176071950Y-114089870D01*
X176133734Y-114193677D01*
X176178133Y-114265922D01*
X176470226Y-114795362D01*
X176704520Y-115349521D01*
X176880088Y-115924876D01*
X176996007Y-116517905D01*
X177051351Y-117125087D01*
X177052321Y-117594089D01*
X177000547Y-118212102D01*
X176890115Y-118806488D01*
X176720381Y-119379431D01*
X176490706Y-119933117D01*
X176214862Y-120445847D01*
X176137784Y-120575623D01*
X176074364Y-120685145D01*
X176030928Y-120763288D01*
X176013803Y-120798930D01*
X176013750Y-120799450D01*
X176034985Y-120827709D01*
X176092949Y-120891283D01*
X176179030Y-120981027D01*
X176284619Y-121087799D01*
X176295395Y-121098538D01*
X176577040Y-121378878D01*
X176762437Y-121097876D01*
X177089642Y-120544821D01*
X177363884Y-119959498D01*
X177582903Y-119347867D01*
X177744441Y-118715885D01*
X177813558Y-118324500D01*
X177842488Y-118063206D01*
X177860459Y-117760008D01*
X177867507Y-117434266D01*
X177863662Y-117105340D01*
X177848959Y-116792590D01*
X177823431Y-116515375D01*
X177810307Y-116419500D01*
X177745771Y-116064367D01*
X177661037Y-115697967D01*
X177562735Y-115346725D01*
X177475724Y-115086000D01*
X177382737Y-114853819D01*
X177263884Y-114590864D01*
X177129112Y-114316895D01*
X176988370Y-114051672D01*
X176851605Y-113814956D01*
X176774646Y-113693398D01*
X176577742Y-113396172D01*
X176295746Y-113676862D01*
G36*
X165490737Y-113712809D02*
G01*
X165165779Y-114265374D01*
X164898110Y-114840764D01*
X164687731Y-115434553D01*
X164534642Y-116042314D01*
X164438847Y-116659622D01*
X164400346Y-117282048D01*
X164419142Y-117905168D01*
X164495235Y-118524553D01*
X164628628Y-119135778D01*
X164819322Y-119734416D01*
X165067319Y-120316041D01*
X165372621Y-120876225D01*
X165487967Y-121058712D01*
X165568760Y-121180893D01*
X165636262Y-121280844D01*
X165683356Y-121348175D01*
X165702881Y-121372500D01*
X165727487Y-121351348D01*
X165787860Y-121293637D01*
X165875140Y-121207977D01*
X165980464Y-121102981D01*
X165989350Y-121094059D01*
X166095275Y-120985946D01*
X166182517Y-120893676D01*
X166242436Y-120826620D01*
X166266393Y-120794150D01*
X166266500Y-120793424D01*
X166250342Y-120758309D01*
X166207289Y-120684050D01*
X166145481Y-120584468D01*
X166121040Y-120546371D01*
X166009752Y-120359623D01*
X165888594Y-120131629D01*
X165766732Y-119881719D01*
X165653334Y-119629226D01*
X165557568Y-119393480D01*
X165506469Y-119250404D01*
X165404944Y-118912728D01*
X165329370Y-118586928D01*
X165276568Y-118253700D01*
X165243357Y-117893739D01*
X165228439Y-117562500D01*
X165224079Y-117203669D01*
X165234247Y-116887915D01*
X165260997Y-116596055D01*
X165306382Y-116308902D01*
X165372456Y-116007272D01*
X165411204Y-115855190D01*
X165566362Y-115362801D01*
X165767412Y-114877426D01*
X166005117Y-114420157D01*
X166127598Y-114219822D01*
X166192356Y-114116719D01*
X166241008Y-114034068D01*
X166265229Y-113986178D01*
X166266500Y-113981035D01*
X166245224Y-113950952D01*
X166187135Y-113885777D01*
X166100842Y-113794793D01*
X165994954Y-113687282D01*
X165983201Y-113675563D01*
X165699901Y-113393576D01*
X165490737Y-113712809D01*
G37*
X165490737Y-113712809D02*
X165165779Y-114265374D01*
X164898110Y-114840764D01*
X164687731Y-115434553D01*
X164534642Y-116042314D01*
X164438847Y-116659622D01*
X164400346Y-117282048D01*
X164419142Y-117905168D01*
X164495235Y-118524553D01*
X164628628Y-119135778D01*
X164819322Y-119734416D01*
X165067319Y-120316041D01*
X165372621Y-120876225D01*
X165487967Y-121058712D01*
X165568760Y-121180893D01*
X165636262Y-121280844D01*
X165683356Y-121348175D01*
X165702881Y-121372500D01*
X165727487Y-121351348D01*
X165787860Y-121293637D01*
X165875140Y-121207977D01*
X165980464Y-121102981D01*
X165989350Y-121094059D01*
X166095275Y-120985946D01*
X166182517Y-120893676D01*
X166242436Y-120826620D01*
X166266393Y-120794150D01*
X166266500Y-120793424D01*
X166250342Y-120758309D01*
X166207289Y-120684050D01*
X166145481Y-120584468D01*
X166121040Y-120546371D01*
X166009752Y-120359623D01*
X165888594Y-120131629D01*
X165766732Y-119881719D01*
X165653334Y-119629226D01*
X165557568Y-119393480D01*
X165506469Y-119250404D01*
X165404944Y-118912728D01*
X165329370Y-118586928D01*
X165276568Y-118253700D01*
X165243357Y-117893739D01*
X165228439Y-117562500D01*
X165224079Y-117203669D01*
X165234247Y-116887915D01*
X165260997Y-116596055D01*
X165306382Y-116308902D01*
X165372456Y-116007272D01*
X165411204Y-115855190D01*
X165566362Y-115362801D01*
X165767412Y-114877426D01*
X166005117Y-114420157D01*
X166127598Y-114219822D01*
X166192356Y-114116719D01*
X166241008Y-114034068D01*
X166265229Y-113986178D01*
X166266500Y-113981035D01*
X166245224Y-113950952D01*
X166187135Y-113885777D01*
X166100842Y-113794793D01*
X165994954Y-113687282D01*
X165983201Y-113675563D01*
X165699901Y-113393576D01*
X165490737Y-113712809D01*
G36*
X173215620Y-114585717D02*
G01*
X171052489Y-114593875D01*
X170501354Y-116070250D01*
X170383472Y-116386649D01*
X170264948Y-116705916D01*
X170149151Y-117018900D01*
X170039450Y-117316447D01*
X169939214Y-117589408D01*
X169851813Y-117828629D01*
X169780615Y-118024958D01*
X169737140Y-118146246D01*
X169659773Y-118360297D01*
X169599636Y-118517871D01*
X169554924Y-118623072D01*
X169523832Y-118680001D01*
X169504553Y-118692762D01*
X169499568Y-118685996D01*
X169481694Y-118638350D01*
X169446430Y-118541135D01*
X169397478Y-118404674D01*
X169338541Y-118239293D01*
X169273321Y-118055316D01*
X169267465Y-118038750D01*
X169212268Y-117884366D01*
X169138195Y-117679883D01*
X169048682Y-117434654D01*
X168947167Y-117158031D01*
X168837087Y-116859364D01*
X168721878Y-116548007D01*
X168604979Y-116233311D01*
X168526441Y-116022625D01*
X167993028Y-114593875D01*
X167463139Y-114585169D01*
X167259367Y-114582878D01*
X167111785Y-114583992D01*
X167013156Y-114588943D01*
X166956241Y-114598166D01*
X166933800Y-114612093D01*
X166932708Y-114616919D01*
X166943947Y-114651758D01*
X166976747Y-114741525D01*
X167029495Y-114882027D01*
X167100579Y-115069071D01*
X167188385Y-115298466D01*
X167291299Y-115566019D01*
X167407709Y-115867536D01*
X167536002Y-116198827D01*
X167674564Y-116555698D01*
X167821781Y-116933957D01*
X167976042Y-117329412D01*
X168002296Y-117396627D01*
X169072426Y-120135879D01*
X169988986Y-120118375D01*
X170896917Y-117792687D01*
X171804847Y-115467000D01*
X174331000Y-115467000D01*
X174331000Y-119245250D01*
X171632250Y-119245250D01*
X171632250Y-120134250D01*
X173484334Y-120134250D01*
X173821485Y-120133896D01*
X174139566Y-120132880D01*
X174432927Y-120131263D01*
X174695916Y-120129110D01*
X174922884Y-120126485D01*
X175108179Y-120123452D01*
X175246151Y-120120074D01*
X175331150Y-120116416D01*
X175357584Y-120113083D01*
X175360752Y-120078873D01*
X175363777Y-119985771D01*
X175366623Y-119838385D01*
X175369255Y-119641325D01*
X175371638Y-119399197D01*
X175373737Y-119116611D01*
X175375517Y-118798174D01*
X175376942Y-118448495D01*
X175377978Y-118072182D01*
X175378590Y-117673843D01*
X175378750Y-117334737D01*
X175378750Y-114577559D01*
X173215620Y-114585717D01*
G37*
X173215620Y-114585717D02*
X171052489Y-114593875D01*
X170501354Y-116070250D01*
X170383472Y-116386649D01*
X170264948Y-116705916D01*
X170149151Y-117018900D01*
X170039450Y-117316447D01*
X169939214Y-117589408D01*
X169851813Y-117828629D01*
X169780615Y-118024958D01*
X169737140Y-118146246D01*
X169659773Y-118360297D01*
X169599636Y-118517871D01*
X169554924Y-118623072D01*
X169523832Y-118680001D01*
X169504553Y-118692762D01*
X169499568Y-118685996D01*
X169481694Y-118638350D01*
X169446430Y-118541135D01*
X169397478Y-118404674D01*
X169338541Y-118239293D01*
X169273321Y-118055316D01*
X169267465Y-118038750D01*
X169212268Y-117884366D01*
X169138195Y-117679883D01*
X169048682Y-117434654D01*
X168947167Y-117158031D01*
X168837087Y-116859364D01*
X168721878Y-116548007D01*
X168604979Y-116233311D01*
X168526441Y-116022625D01*
X167993028Y-114593875D01*
X167463139Y-114585169D01*
X167259367Y-114582878D01*
X167111785Y-114583992D01*
X167013156Y-114588943D01*
X166956241Y-114598166D01*
X166933800Y-114612093D01*
X166932708Y-114616919D01*
X166943947Y-114651758D01*
X166976747Y-114741525D01*
X167029495Y-114882027D01*
X167100579Y-115069071D01*
X167188385Y-115298466D01*
X167291299Y-115566019D01*
X167407709Y-115867536D01*
X167536002Y-116198827D01*
X167674564Y-116555698D01*
X167821781Y-116933957D01*
X167976042Y-117329412D01*
X168002296Y-117396627D01*
X169072426Y-120135879D01*
X169988986Y-120118375D01*
X170896917Y-117792687D01*
X171804847Y-115467000D01*
X174331000Y-115467000D01*
X174331000Y-119245250D01*
X171632250Y-119245250D01*
X171632250Y-120134250D01*
X173484334Y-120134250D01*
X173821485Y-120133896D01*
X174139566Y-120132880D01*
X174432927Y-120131263D01*
X174695916Y-120129110D01*
X174922884Y-120126485D01*
X175108179Y-120123452D01*
X175246151Y-120120074D01*
X175331150Y-120116416D01*
X175357584Y-120113083D01*
X175360752Y-120078873D01*
X175363777Y-119985771D01*
X175366623Y-119838385D01*
X175369255Y-119641325D01*
X175371638Y-119399197D01*
X175373737Y-119116611D01*
X175375517Y-118798174D01*
X175376942Y-118448495D01*
X175377978Y-118072182D01*
X175378590Y-117673843D01*
X175378750Y-117334737D01*
X175378750Y-114577559D01*
X173215620Y-114585717D01*
G36*
X172553000Y-117753000D02*
G01*
X173473750Y-117753000D01*
X173473750Y-116832250D01*
X172553000Y-116832250D01*
X172553000Y-117753000D01*
G37*
X172553000Y-117753000D02*
X173473750Y-117753000D01*
X173473750Y-116832250D01*
X172553000Y-116832250D01*
X172553000Y-117753000D01*
G36*
X170682431Y-110667607D02*
G01*
X170402054Y-110686308D01*
X170165836Y-110714436D01*
X170155875Y-110716030D01*
X169493164Y-110853476D01*
X168862450Y-111045657D01*
X168263186Y-111292781D01*
X167694826Y-111595056D01*
X167460226Y-111741761D01*
X167145827Y-111947650D01*
X167427814Y-112230950D01*
X167536508Y-112338377D01*
X167629636Y-112427101D01*
X167697918Y-112488514D01*
X167732070Y-112514007D01*
X167733286Y-112514250D01*
X167769226Y-112498124D01*
X167843824Y-112455299D01*
X167942771Y-112394098D01*
X167972073Y-112375330D01*
X168477565Y-112086439D01*
X169011221Y-111851839D01*
X169567321Y-111672119D01*
X170140143Y-111547867D01*
X170723969Y-111479670D01*
X171313078Y-111468117D01*
X171901748Y-111513795D01*
X172484261Y-111617293D01*
X173054896Y-111779197D01*
X173215441Y-111836448D01*
X173772952Y-112078469D01*
X174275975Y-112358850D01*
X174387693Y-112426760D01*
X174478882Y-112479615D01*
X174536370Y-112509907D01*
X174548529Y-112514250D01*
X174578288Y-112493021D01*
X174642754Y-112435301D01*
X174732278Y-112350035D01*
X174831764Y-112251649D01*
X174934661Y-112145290D01*
X175018472Y-112053092D01*
X175074217Y-111985320D01*
X175093000Y-111953081D01*
X175066185Y-111917348D01*
X174991257Y-111857628D01*
X174876492Y-111779131D01*
X174730167Y-111687069D01*
X174560558Y-111586652D01*
X174375942Y-111483089D01*
X174188125Y-111383410D01*
X173632443Y-111128514D01*
X173056178Y-110926729D01*
X172449854Y-110774990D01*
X172124375Y-110715623D01*
X171889915Y-110687138D01*
X171610710Y-110668097D01*
X171304540Y-110658498D01*
X170989187Y-110658335D01*
X170682431Y-110667607D01*
G37*
X170682431Y-110667607D02*
X170402054Y-110686308D01*
X170165836Y-110714436D01*
X170155875Y-110716030D01*
X169493164Y-110853476D01*
X168862450Y-111045657D01*
X168263186Y-111292781D01*
X167694826Y-111595056D01*
X167460226Y-111741761D01*
X167145827Y-111947650D01*
X167427814Y-112230950D01*
X167536508Y-112338377D01*
X167629636Y-112427101D01*
X167697918Y-112488514D01*
X167732070Y-112514007D01*
X167733286Y-112514250D01*
X167769226Y-112498124D01*
X167843824Y-112455299D01*
X167942771Y-112394098D01*
X167972073Y-112375330D01*
X168477565Y-112086439D01*
X169011221Y-111851839D01*
X169567321Y-111672119D01*
X170140143Y-111547867D01*
X170723969Y-111479670D01*
X171313078Y-111468117D01*
X171901748Y-111513795D01*
X172484261Y-111617293D01*
X173054896Y-111779197D01*
X173215441Y-111836448D01*
X173772952Y-112078469D01*
X174275975Y-112358850D01*
X174387693Y-112426760D01*
X174478882Y-112479615D01*
X174536370Y-112509907D01*
X174548529Y-112514250D01*
X174578288Y-112493021D01*
X174642754Y-112435301D01*
X174732278Y-112350035D01*
X174831764Y-112251649D01*
X174934661Y-112145290D01*
X175018472Y-112053092D01*
X175074217Y-111985320D01*
X175093000Y-111953081D01*
X175066185Y-111917348D01*
X174991257Y-111857628D01*
X174876492Y-111779131D01*
X174730167Y-111687069D01*
X174560558Y-111586652D01*
X174375942Y-111483089D01*
X174188125Y-111383410D01*
X173632443Y-111128514D01*
X173056178Y-110926729D01*
X172449854Y-110774990D01*
X172124375Y-110715623D01*
X171889915Y-110687138D01*
X171610710Y-110668097D01*
X171304540Y-110658498D01*
X170989187Y-110658335D01*
X170682431Y-110667607D01*
%TD*%
M02*
